<?xml version="1.0" encoding="utf-8"?>
<!-- Generator: Adobe Illustrator 17.0.0, SVG Export Plug-In . SVG Version: 6.00 Build 0)  -->
<!DOCTYPE svg PUBLIC "-//W3C//DTD SVG 1.1//EN" "http://www.w3.org/Graphics/SVG/1.1/DTD/svg11.dtd">
<svg version="1.1" id="Layer_1" xmlns="http://www.w3.org/2000/svg" xmlns:xlink="http://www.w3.org/1999/xlink" x="0px" y="0px"
	 width="113.39px" height="119.195px" viewBox="149 -2 113.39 119.195" enable-background="new 149 -2 113.39 119.195"
	 xml:space="preserve">
<g>
	<path fill="#003A60" d="M56.697,0C25.38,0,0.002,25.385,0.002,56.695c0,31.314,25.381,56.695,56.695,56.695
		c31.31,0,56.691-25.382,56.691-56.695C113.388,25.389,88.007,0,56.697,0z M56.697,102.76c-25.442,0-46.065-20.623-46.065-46.065
		c0-25.442,20.626-46.065,46.065-46.065s46.061,20.623,46.061,46.065C102.758,82.137,82.135,102.76,56.697,102.76z"/>
</g>
<path fill="#BF8817" d="M78.978,32.578c-2.41-1.439-5.489-0.585-6.874,1.913L53.093,68.64L42.505,55.752
	c-1.917-2.208-4.465-3.352-6.871-1.913c-2.41,1.442-3.405,4.911-1.846,7.137l14.734,17.933c1.102,1.431,2.36,2.289,3.675,2.534
	l0.011,0.021l0.135,0.007c0.298,0.046,4.748,0.868,6.665-2.562l21.821-39.194C82.213,37.213,81.388,34.02,78.978,32.578z"/>
<path fill="#003A60" d="M253.212,30.235c-0.058-3.061-0.114-5.953-0.114-8.751c0-2.192-1.777-3.969-3.969-3.969
	c-16.974,0-29.897-4.878-40.669-15.352c-1.541-1.499-3.993-1.498-5.534,0c-10.771,10.474-23.692,15.352-40.665,15.352
	c-2.192,0-3.969,1.777-3.969,3.969c0,2.798-0.055,5.691-0.114,8.753c-0.544,28.49-1.289,67.507,46.215,83.973
	c0.421,0.146,0.86,0.219,1.3,0.219c0.439,0,0.879-0.073,1.3-0.219C254.5,97.745,253.756,58.726,253.212,30.235z M205.693,106.249
	c-40.741-14.8-40.125-47.221-39.578-75.86c0.033-1.719,0.065-3.385,0.087-5.018c15.897-0.671,28.609-5.488,39.491-14.968
	c10.883,9.48,23.598,14.298,39.496,14.968c0.022,1.633,0.054,3.297,0.087,5.015C245.822,59.027,246.437,91.449,205.693,106.249z"/>
<path fill="#BF8817" d="M219.361,43.947l-19.156,19.155l-8.174-8.174c-1.55-1.549-4.063-1.549-5.613,0
	c-1.55,1.551-1.55,4.063,0,5.613l10.981,10.981c0.775,0.775,1.791,1.162,2.806,1.162s2.032-0.387,2.806-1.162l21.962-21.961
	c1.551-1.55,1.551-4.063,0.001-5.613C223.424,42.398,220.911,42.397,219.361,43.947z"/>
</svg>
