<svg xmlns="http://www.w3.org/2000/svg" viewBox="0 0 227 227" width="227" height="227">
	<defs>
		<clipPath clipPathUnits="userSpaceOnUse" id="cp1">
			<path d="M0 0L227 0L227 227L0 227Z" />
		</clipPath>
	</defs>
	<style>
		tspan { white-space:pre }
		.shp0 { fill: #003a60 } 
		.shp1 { fill: #bf8817 } 
	</style>
	<g id="Page 1" clip-path="url(#cp1)">
		<path id="Path 1" fill-rule="evenodd" class="shp0" d="M226.78 113.61C226.78 176.24 176.01 227 113.39 227C50.77 227 0 176.24 0 113.61C0 50.99 50.76 0.22 113.39 0.22C176.01 0.22 226.78 51 226.78 113.61ZM205.52 113.61C205.52 62.73 164.27 21.48 113.39 21.48C62.52 21.48 21.26 62.73 21.26 113.61C21.26 164.49 62.51 205.74 113.39 205.74C164.27 205.74 205.52 164.49 205.52 113.61Z" />
		<path id="Path 2" class="shp1" d="M157.96 65.38C153.14 62.5 146.98 64.21 144.21 69.2L106.19 137.5L85.01 111.72C81.18 107.31 76.08 105.02 71.27 107.9C66.45 110.78 64.46 117.72 67.58 122.17L97.04 158.04C99.25 160.9 101.76 162.62 104.39 163.1L104.42 163.15L104.68 163.16C105.28 163.25 114.18 164.9 118.02 158.04L161.66 79.65C164.43 74.65 162.78 68.26 157.96 65.38Z" />
	</g>
</svg>