<svg xmlns="http://www.w3.org/2000/svg" viewBox="0 0 230 230" width="230" height="230">
	<defs>
		<clipPath clipPathUnits="userSpaceOnUse" id="cp1">
			<path d="M-33 -41L263 -41L263 271L-33 271Z" />
		</clipPath>
	</defs>
	<style>
		tspan { white-space:pre }
		.shp0 { fill: #ac1a16 } 
	</style>
	<g id="Page 3" clip-path="url(#cp1)">
		<path id="Path 9" fill-rule="evenodd" class="shp0" d="M114.95 229.88C94.04 229.88 73.57 224.14 55.44 213.04L12.61 224.73C9.02 225.69 5.18 224.52 2.78 221.67C0.38 218.81 -0.13 214.82 1.45 211.46C10.6 192.04 12.15 170.06 5.84 149.55C4.34 144.77 3.13 139.8 2.26 134.82C-2.99 104.65 3.84 74.24 21.46 49.2C39.08 24.15 65.41 7.48 95.58 2.23C95.77 2.2 95.96 2.17 96.15 2.15C125 -2.7 154.28 3.54 178.66 19.74C204.15 36.69 221.52 62.56 227.57 92.58C233.61 122.6 227.6 153.17 210.65 178.67C193.7 204.17 167.83 221.55 137.81 227.58C130.18 229.12 122.54 229.88 114.95 229.88ZM57 193.16C58.86 193.16 60.7 193.71 62.29 194.76C83.53 208.89 109 213.87 134.03 208.87C159.04 203.83 180.6 189.35 194.73 168.09C208.86 146.85 213.88 121.37 208.84 96.36C203.81 71.35 189.34 49.79 168.08 35.66C147.67 22.09 123.12 16.91 98.94 21.07C98.77 21.1 98.6 21.13 98.43 21.15C73.47 25.6 51.7 39.46 37.1 60.2C22.4 81.07 16.72 106.4 21.09 131.55C21.81 135.7 22.82 139.85 24.09 143.88C29.9 162.78 30.27 182.67 25.33 201.46L54.49 193.51C55.31 193.28 56.16 193.16 57 193.16ZM115.18 133.46C109.9 133.46 105.62 129.19 105.62 123.9L105.62 66.58C105.62 61.31 109.9 57.03 115.18 57.03C120.45 57.03 124.73 61.31 124.73 66.58L124.73 123.9C124.73 129.19 120.45 133.46 115.18 133.46ZM115.18 172.53C112.6 172.53 110.21 171.56 108.39 169.76C106.58 167.94 105.62 165.55 105.62 162.97C105.62 161.73 105.91 160.49 106.39 159.34C106.86 158.2 107.53 157.15 108.39 156.19C108.87 155.81 109.35 155.33 109.83 155.05C110.4 154.66 110.97 154.38 111.55 154.19C112.12 153.9 112.69 153.71 113.36 153.6C116.42 152.94 119.76 153.99 121.96 156.19C122.82 157.15 123.49 158.2 123.96 159.34C124.44 160.49 124.73 161.73 124.73 162.97C124.73 165.55 123.77 167.94 121.96 169.76C121 170.62 119.95 171.29 118.81 171.76C117.66 172.24 116.42 172.53 115.18 172.53Z" />
	</g>
</svg>