<?xml version="1.0" encoding="utf-8"?>
<!-- Generator: Adobe Illustrator 17.0.0, SVG Export Plug-In . SVG Version: 6.00 Build 0)  -->
<!DOCTYPE svg PUBLIC "-//W3C//DTD SVG 1.1//EN" "http://www.w3.org/Graphics/SVG/1.1/DTD/svg11.dtd">
<svg version="1.1" id="Modo_de_aislamiento" xmlns="http://www.w3.org/2000/svg" xmlns:xlink="http://www.w3.org/1999/xlink"
	 x="0px" y="0px" width="231px" height="152px" viewBox="0 0 231 152" enable-background="new 0 0 231 152" xml:space="preserve">
<path fill="#DBBC81" d="M145.04,39.131c-2.769-0.599-5.495,1.158-6.09,3.927c-0.602,2.765,1.16,5.498,3.925,6.094
	c2.771,0.597,5.5-1.163,6.097-3.927C149.571,42.455,147.809,39.73,145.04,39.131"/>
<path fill="#EEE1C6" d="M151.791,63.709c-1.764-0.383-3.495,0.739-3.876,2.503c-0.383,1.76,0.737,3.497,2.495,3.876
	c1.766,0.382,3.503-0.737,3.884-2.501C154.675,65.825,153.553,64.089,151.791,63.709"/>
<path fill="#8AAEDA" d="M134.593,27.39c-3.396-0.735-6.748,1.427-7.479,4.821c-0.735,3.393,1.425,6.744,4.822,7.478
	c3.398,0.737,6.751-1.426,7.481-4.821C140.152,31.473,137.993,28.121,134.593,27.39"/>
<path fill="#90A6C3" d="M150.239,51.884c-2.262-0.49-4.5,0.955-4.987,3.215c-0.49,2.267,0.956,4.498,3.215,4.983
	c2.265,0.491,4.498-0.945,4.987-3.213C153.941,54.61,152.503,52.375,150.239,51.884"/>
<path fill="#E7EDF9" d="M150.406,73.636c-1.257-0.27-2.496,0.532-2.769,1.79c-0.271,1.259,0.529,2.498,1.788,2.77
	c1.258,0.274,2.499-0.53,2.77-1.789C152.468,75.154,151.666,73.91,150.406,73.636"/>
<path fill="#DFE5F1" d="M147.37,80.505c-0.998-0.214-1.981,0.423-2.199,1.422c-0.216,1,0.419,1.983,1.419,2.199
	c0.999,0.22,1.985-0.419,2.2-1.42C149.008,81.71,148.371,80.723,147.37,80.505"/>
<path fill="#F2F5FA" d="M143.632,86.31c-0.773-0.165-1.538,0.327-1.707,1.103c-0.167,0.776,0.326,1.538,1.103,1.706
	c0.773,0.169,1.537-0.327,1.706-1.103C144.901,87.245,144.408,86.479,143.632,86.31"/>
<path fill="#CA9F46" d="M118.107,23.401c-3.393-0.731-6.741,1.43-7.476,4.824c-0.73,3.398,1.43,6.745,4.824,7.479
	c3.396,0.734,6.746-1.424,7.476-4.822C123.666,27.488,121.507,24.136,118.107,23.401"/>
<path fill="#1A4869" d="M101.719,26.637c-3.504-0.76-6.969,1.472-7.726,4.98c-0.758,3.517,1.473,6.971,4.984,7.726
	c3.505,0.761,6.966-1.465,7.726-4.981C107.46,30.852,105.227,27.395,101.719,26.637"/>
<path fill="#1A88C4" d="M89.831,38.13c-3.74-0.811-7.433,1.568-8.24,5.313c-0.811,3.752,1.57,7.434,5.315,8.242
	c3.737,0.809,7.431-1.566,8.239-5.315C95.956,42.625,93.573,38.938,89.831,38.13"/>
<path fill="#BF8817" d="M85.985,54.972c-4.049-0.877-8.049,1.699-8.923,5.754c-0.877,4.061,1.701,8.049,5.755,8.921
	c4.049,0.877,8.047-1.694,8.923-5.753C92.617,59.839,90.036,55.846,85.985,54.972"/>
<path fill="#003A60" d="M91.753,73.243c-4.303-0.933-8.553,1.805-9.482,6.113c-0.932,4.315,1.808,8.553,6.118,9.482
	c4.299,0.931,8.549-1.801,9.48-6.115C98.799,78.416,96.057,74.173,91.753,73.243"/>
<path fill="#AD1A17" d="M132.517,82.301c-0.166-0.581,0.068-1.225,0.53-1.584l11.646-9.459l-2.411-1.133
	c-1.063-0.379-0.765-0.972-0.385-2.413l1.774-6.458l-6.763,1.421c-0.659,0.101-1.099-0.318-1.2-0.718l-0.87-3.044l-5.349,5.992
	c-0.762,0.958-2.303,0.958-1.821-1.257l2.285-12.131l-3.067,1.588c-0.861,0.479-1.721,0.558-2.201-0.301l-4.235-7.897l-4.235,7.897
	c-0.48,0.859-1.343,0.78-2.206,0.301l-3.063-1.588l2.285,12.131c0.483,2.215-1.063,2.215-1.823,1.257l-5.351-5.992l-0.867,3.044
	c-0.1,0.4-0.541,0.819-1.202,0.718l-6.762-1.421L99,67.712c0.383,1.441,0.682,2.034-0.382,2.413l-2.414,1.133l11.647,9.459
	c0.462,0.359,0.694,1.003,0.531,1.584l-0.354,0.94h24.842L132.517,82.301z"/>
<rect x="8.178" y="120.183" fill="#AD1A17" width="214.75" height="1.167"/>
<path fill="#003A60" d="M11.008,113.883c-0.422,0-1.737,0.022-2.83,0.044v-1.069c0.915-0.045,1.45-0.133,1.605-0.288
	c0.2-0.202,0.29-0.582,0.334-1.76c0.334-7.552,0.356-8.644,0.356-9.089c0-0.179-0.022-0.579-0.132-0.714
	c-0.111-0.156-0.291-0.243-1.784-0.378V99.56c0.959,0.044,2.23,0.044,2.697,0.044c0.534,0,1.936,0,2.317-0.044
	c0.444,1.426,0.89,2.65,3.475,10.202c2.851-7.774,3.23-8.843,3.674-10.202c0.513,0.021,1.939,0.044,2.452,0.044
	c0.356,0,2.16,0,2.761-0.044v1.069c-1.426,0.11-1.76,0.201-1.872,0.357c-0.155,0.178-0.178,0.556-0.178,1.18
	c0,0.468,0.023,1.227,0.135,8.733c0.022,1.18,0.089,1.425,0.155,1.558c0.135,0.223,0.312,0.314,1.893,0.401v1.069
	c-1.046-0.022-2.961-0.044-3.608-0.044c-0.579,0-1.848,0.022-3.097,0.044v-1.069c1.426-0.087,1.649-0.2,1.783-0.401
	c0.089-0.133,0.156-0.4,0.156-1.07c0-0.334,0-4.7,0.023-9.221c-0.424,1.227-0.981,2.763-4.39,11.739h-1.179
	c-2.942-8.219-3.254-9.155-3.966-11.361c-0.088,3.276-0.178,8.487-0.178,9.067c0,0.446,0.045,0.801,0.2,0.936
	c0.179,0.178,0.29,0.224,1.827,0.311v1.069C12.724,113.905,11.477,113.883,11.008,113.883"/>
<path fill="#003A60" d="M29.317,113.883c-0.492,0-1.805,0.021-2.785,0.045v-1.07c0.803-0.089,1.159-0.201,1.36-0.401
	c0.31-0.311,0.601-0.935,1.09-2.228l4.032-10.691h1.871l3.831,10.782c0.535,1.49,0.692,1.89,0.959,2.204
	c0.178,0.178,0.624,0.265,1.38,0.334v1.07c-1.046-0.024-1.959-0.045-2.516-0.045c-0.579,0-3.075,0.021-4.278,0.045v-1.07
	c1.581-0.156,1.826-0.378,1.826-0.824c0-0.447-0.132-1.026-0.4-1.805l-0.468-1.315h-4.166l-0.422,1.269
	c-0.334,1.004-0.468,1.583-0.468,1.94c0,0.447,0.289,0.558,2.095,0.735v1.07C31.188,113.904,29.807,113.883,29.317,113.883
	 M34.774,107.601c-0.913-2.741-1.225-3.766-1.561-4.833c-0.354,1.09-0.733,2.138-1.715,4.833H34.774z"/>
<path fill="#003A60" d="M45.286,113.883c-0.757,0-2.162,0.022-3.365,0.044v-1.067c0.892-0.089,1.338-0.18,1.583-0.379
	c0.201-0.179,0.289-0.358,0.289-1.271v-8.977c0-0.913-0.067-1.069-0.223-1.204c-0.154-0.155-0.422-0.265-1.649-0.4v-1.048h4.725
	c1.648,0,2.805,0.045,3.629,0.201c2.094,0.401,3.41,1.694,3.41,3.945c0,2.849-2.028,4.386-5.481,4.386c-0.557,0-1.181,0-1.738-0.065
	v3.096c0,0.78,0.067,1.136,0.268,1.337c0.177,0.155,0.623,0.29,1.892,0.379v1.067C47.559,113.905,45.776,113.883,45.286,113.883
	 M47.647,106.8c1.804,0,3.029-0.759,3.029-2.896c0-1.493-0.467-2.362-1.603-2.719c-0.559-0.178-1.249-0.244-2.607-0.244v5.814
	C46.889,106.8,47.357,106.8,47.647,106.8"/>
<path fill="#003A60" d="M66.134,113.236c-0.157,0.558-0.445,0.668-1.38,0.668h-9.513v-1.046c0.959-0.068,1.493-0.179,1.649-0.356
	c0.178-0.223,0.222-0.646,0.222-1.404v-8.799c0-0.913-0.089-1.114-0.222-1.271c-0.156-0.177-0.601-0.287-1.649-0.4v-1.07
	c1.137,0.023,2.718,0.044,3.319,0.044c0.535,0,2.162-0.021,3.186-0.044v1.07c-1.047,0.09-1.537,0.223-1.716,0.379
	c-0.155,0.158-0.223,0.423-0.223,1.224v9.179c0,0.601,0.157,0.89,0.601,1.002c0.469,0.112,1.183,0.177,1.649,0.177
	c1.314,0,2.251-0.2,2.585-0.556c0.311-0.333,0.667-1.158,1.068-2.25l0.937,0.179C66.558,110.921,66.379,112.478,66.134,113.236"/>
<path fill="#003A60" d="M78.673,113.393c-0.201,0.467-0.513,0.512-1.403,0.512h-9.423v-1.047c1.07-0.088,1.494-0.179,1.625-0.356
	c0.179-0.247,0.247-0.601,0.247-1.381v-8.822c0-0.623-0.046-1.069-0.156-1.202c-0.18-0.201-0.536-0.313-1.716-0.469V99.58h8.956
	c1.112,0,1.223,0.224,1.313,0.714c0.133,0.648,0.157,2.496,0.157,3.03l-0.959,0.046c-0.267-1.181-0.445-1.806-0.734-2.05
	c-0.379-0.335-1.292-0.402-2.629-0.402c-0.402,0-1.004,0-1.559,0.046v4.877h0.199c1.806,0,2.496-0.112,2.762-0.4
	c0.179-0.181,0.291-0.623,0.468-1.426h0.982c-0.024,0.535-0.024,1.826-0.024,2.428c0,0.355,0,1.691,0.024,2.606h-0.937
	c-0.155-0.825-0.29-1.315-0.445-1.516c-0.311-0.332-0.957-0.332-2.852-0.332h-0.177v4.231c0,0.602,0.155,0.869,0.579,0.98
	c0.489,0.134,1.203,0.201,1.67,0.201c1.516,0,2.295-0.223,2.584-0.557c0.29-0.334,0.69-1.225,1.092-2.295l0.913,0.179
	C79.162,111.121,78.963,112.725,78.673,113.393"/>
<path fill="#003A60" d="M89.149,113.572c-0.494,0-1.374,0.021-2.49,0.043v-1.029c1.244-0.085,1.504-0.258,1.632-0.43
	c0.106-0.149,0.172-0.472,0.172-1.244v-8.479c0-0.859-0.087-1.073-0.151-1.179c-0.106-0.173-0.364-0.302-1.653-0.452v-1.009h3.113
	c1.974,0,3.733,0.044,4.743,0.236c1.889,0.343,3.133,1.567,3.133,3.585c0,1.544-0.858,2.896-2.575,3.563
	c1.137,2.125,1.781,3.178,2.598,4.228c0.6,0.793,1.115,1.373,1.781,1.909l-0.515,0.903c-1.546-0.472-2.533-1.031-3.327-1.804
	c-0.944-0.944-1.845-1.995-3.327-4.722c-0.729,0-1.051-0.019-1.223-0.043v3.221c0,0.794,0.064,1.114,0.151,1.224
	c0.149,0.17,0.277,0.408,1.715,0.493v1.029C91.897,113.593,89.729,113.572,89.149,113.572 M91.897,106.361
	c2.06,0,2.897-1.009,2.897-2.619c0-1.329-0.644-2.146-1.48-2.467c-0.644-0.258-1.547-0.281-2.254-0.281v5.304
	C91.339,106.361,91.703,106.361,91.897,106.361"/>
<path fill="#003A60" d="M110.739,113.101c-0.194,0.45-0.494,0.492-1.353,0.492h-9.078v-1.008c1.031-0.085,1.439-0.171,1.566-0.342
	c0.172-0.239,0.238-0.579,0.238-1.331v-8.499c0-0.601-0.044-1.032-0.153-1.16c-0.171-0.193-0.513-0.301-1.651-0.451v-1.01h8.629
	c1.072,0,1.178,0.216,1.265,0.689c0.128,0.623,0.151,2.404,0.151,2.918l-0.924,0.044c-0.257-1.137-0.428-1.739-0.707-1.975
	c-0.366-0.323-1.245-0.387-2.533-0.387c-0.387,0-0.967,0-1.502,0.044v4.7h0.192c1.738,0,2.405-0.109,2.661-0.386
	c0.172-0.174,0.281-0.601,0.451-1.374h0.946c-0.023,0.515-0.023,1.76-0.023,2.339c0,0.343,0,1.63,0.023,2.511h-0.903
	c-0.149-0.793-0.279-1.266-0.428-1.46c-0.301-0.321-0.923-0.321-2.748-0.321h-0.171v4.077c0,0.58,0.15,0.838,0.558,0.945
	c0.472,0.13,1.159,0.193,1.609,0.193c1.461,0,2.211-0.215,2.49-0.536c0.279-0.322,0.665-1.181,1.052-2.211l0.88,0.172
	C111.21,110.912,111.018,112.457,110.739,113.101"/>
<path fill="#003A60" d="M114.922,111.791c0.665,0.579,1.289,0.75,2.254,0.75c1.525,0,2.36-0.792,2.36-1.78
	c0-1.094-0.449-1.588-1.932-2.361l-1.223-0.665c-2.49-1.331-3.154-2.49-3.154-4.313c0-2.362,1.996-3.906,5.001-3.928
	c1.052,0,1.866,0.085,2.575,0.343c0.215,0.086,0.473,0.215,0.579,0.771c0.152,0.711,0.171,2.235,0.171,3.072l-1.029,0.041
	c-0.215-1.051-0.387-1.652-0.601-2.037c-0.323-0.58-0.924-0.861-2.125-0.861c-1.287,0-2.252,0.624-2.252,1.87
	c0,0.878,0.492,1.479,1.672,2.166l1.267,0.752c2.576,1.545,3.413,2.425,3.413,4.335c0,2.296-1.824,3.948-4.852,3.948
	c-1.073,0-2.166-0.128-3.197-0.514c-0.537-0.193-0.729-0.451-0.795-1.116c-0.085-0.709-0.128-2.318-0.128-2.834l1.074-0.063
	C114.298,110.74,114.643,111.533,114.922,111.791"/>
<path fill="#003A60" d="M126.724,113.572c-0.729,0-2.083,0.022-3.242,0.043v-1.029c0.859-0.085,1.289-0.172,1.525-0.364
	c0.194-0.172,0.279-0.345,0.279-1.225v-8.649c0-0.88-0.065-1.03-0.215-1.16c-0.149-0.149-0.407-0.255-1.589-0.385v-1.01h4.552
	c1.589,0,2.703,0.043,3.498,0.194c2.017,0.386,3.284,1.631,3.284,3.8c0,2.746-1.953,4.227-5.28,4.227c-0.537,0-1.138,0-1.675-0.063
	v2.983c0,0.751,0.064,1.094,0.258,1.288c0.171,0.149,0.601,0.279,1.824,0.364v1.029
	C128.914,113.594,127.197,113.572,126.724,113.572 M128.999,106.748c1.738,0,2.918-0.73,2.918-2.79c0-1.439-0.449-2.275-1.544-2.62
	c-0.539-0.171-1.204-0.235-2.512-0.235v5.602C128.269,106.748,128.72,106.748,128.999,106.748"/>
<path fill="#003A60" d="M139.514,113.551c-0.515,0-2.168,0.021-3.199,0.043v-1.008c1.074-0.106,1.44-0.193,1.568-0.343
	c0.151-0.172,0.236-0.366,0.236-1.267v-8.563c0-0.816-0.065-1.094-0.215-1.224c-0.172-0.15-0.515-0.256-1.589-0.386v-1.031
	c1.031,0.021,2.684,0.045,3.199,0.045c0.537,0,2.039-0.024,3.004-0.045v1.031c-1.18,0.149-1.481,0.236-1.63,0.407
	c-0.108,0.151-0.194,0.387-0.194,1.137v8.693c0,0.816,0.064,1.009,0.173,1.158c0.17,0.195,0.556,0.282,1.651,0.388v1.008
	C141.552,113.572,140.05,113.551,139.514,113.551"/>
<path fill="#003A60" d="M146.38,113.572c-0.494,0-1.373,0.021-2.489,0.043v-1.029c1.245-0.085,1.502-0.258,1.631-0.43
	c0.107-0.149,0.172-0.472,0.172-1.244v-8.479c0-0.859-0.087-1.073-0.15-1.179c-0.107-0.173-0.365-0.302-1.653-0.452v-1.009h3.112
	c1.974,0,3.734,0.044,4.743,0.236c1.889,0.343,3.133,1.567,3.133,3.585c0,1.544-0.858,2.896-2.575,3.563
	c1.138,2.125,1.781,3.178,2.598,4.228c0.6,0.793,1.115,1.373,1.782,1.909l-0.516,0.903c-1.546-0.472-2.533-1.031-3.327-1.804
	c-0.944-0.944-1.845-1.995-3.327-4.722c-0.729,0-1.051-0.019-1.223-0.043v3.221c0,0.794,0.064,1.114,0.151,1.224
	c0.149,0.17,0.277,0.408,1.715,0.493v1.029C149.128,113.593,146.96,113.572,146.38,113.572 M149.128,106.361
	c2.06,0,2.897-1.009,2.897-2.619c0-1.329-0.643-2.146-1.482-2.467c-0.642-0.258-1.544-0.281-2.252-0.281v5.304
	C148.57,106.361,148.935,106.361,149.128,106.361"/>
<path fill="#003A60" d="M159.837,113.574c-0.474,0-1.74,0.019-2.684,0.042v-1.031c0.773-0.085,1.116-0.193,1.31-0.385
	c0.3-0.301,0.579-0.902,1.05-2.148l3.886-10.301h1.801l3.692,10.388c0.515,1.437,0.666,1.822,0.924,2.124
	c0.171,0.171,0.601,0.257,1.33,0.322v1.031c-1.008-0.023-1.888-0.042-2.425-0.042c-0.558,0-2.962,0.019-4.121,0.042v-1.031
	c1.523-0.151,1.76-0.364,1.76-0.794c0-0.43-0.128-0.988-0.386-1.739l-0.45-1.266h-4.013l-0.409,1.222
	c-0.321,0.967-0.451,1.525-0.451,1.869c0,0.431,0.279,0.538,2.019,0.708v1.031C161.639,113.593,160.307,113.574,159.837,113.574
	 M165.094,107.52c-0.88-2.641-1.18-3.627-1.503-4.656c-0.342,1.05-0.706,2.059-1.652,4.656H165.094z"/>
<path fill="#003A60" d="M176.788,113.572c-0.537,0-3.048,0.021-3.885,0.043v-1.03c1.267-0.084,1.717-0.236,1.846-0.514
	c0.086-0.149,0.107-0.539,0.107-1.289v-9.743c-1.417,0.021-2.19,0.043-2.554,0.299c-0.364,0.238-0.601,0.86-1.031,2.577
	l-0.965-0.065c0.022-1.179,0.108-2.747,0.172-3.456c0.022-0.365,0.214-0.601,0.644-0.601h10.258c0.473,0,0.58,0.151,0.622,0.624
	c0.066,0.579,0.109,2.488,0.109,3.391l-1.01,0.042c-0.257-1.266-0.428-2.04-0.772-2.339c-0.365-0.323-1.094-0.429-2.855-0.472v9.721
	c0,0.795,0,1.181,0.108,1.353c0.15,0.256,0.773,0.388,1.909,0.472v1.03C178.741,113.593,177.282,113.572,176.788,113.572"/>
<path fill="#003A60" d="M189.664,113.893c-4.379,0-6.676-3.047-6.676-7.211c0-4.271,2.814-7.189,6.612-7.189
	c4.313,0,6.611,2.639,6.611,7.126C196.211,110.913,193.44,113.893,189.664,113.893 M189.6,100.888c-2.318,0-3.841,1.845-3.841,5.558
	c0,4.272,1.479,6.053,3.926,6.053c2.318,0,3.779-1.781,3.779-5.557C193.464,102.949,192.024,100.888,189.6,100.888"/>
<path fill="#003A60" d="M200.349,113.572c-0.494,0-1.372,0.021-2.49,0.043v-1.029c1.244-0.085,1.504-0.258,1.632-0.43
	c0.106-0.149,0.172-0.472,0.172-1.244v-8.479c0-0.859-0.087-1.073-0.151-1.179c-0.106-0.173-0.364-0.302-1.653-0.452v-1.009h3.113
	c1.974,0,3.735,0.044,4.743,0.236c1.889,0.343,3.133,1.567,3.133,3.585c0,1.544-0.858,2.896-2.575,3.563
	c1.137,2.125,1.781,3.178,2.598,4.228c0.6,0.793,1.115,1.373,1.781,1.909l-0.515,0.903c-1.546-0.472-2.533-1.031-3.327-1.804
	c-0.944-0.944-1.845-1.995-3.327-4.722c-0.729,0-1.051-0.019-1.223-0.043v3.221c0,0.794,0.064,1.114,0.151,1.224
	c0.149,0.17,0.277,0.408,1.715,0.493v1.029C203.097,113.593,200.929,113.572,200.349,113.572 M203.097,106.361
	c2.06,0,2.897-1.009,2.897-2.619c0-1.329-0.644-2.146-1.48-2.467c-0.644-0.258-1.547-0.281-2.254-0.281v5.304
	C202.539,106.361,202.903,106.361,203.097,106.361"/>
<path fill="#003A60" d="M216.489,113.572c-0.516,0-2.168,0.021-3.221,0.043v-1.03c1.461-0.108,1.632-0.216,1.783-0.429
	c0.106-0.151,0.128-0.537,0.128-1.01V107.8l-3.048-5.302c-0.45-0.794-0.73-1.18-0.987-1.373c-0.257-0.193-0.643-0.28-1.181-0.323
	v-1.03c1.158,0.021,2.383,0.042,2.92,0.042c0.579,0,2.232-0.021,3.348-0.042v1.03c-1.438,0.087-1.567,0.28-1.567,0.536
	c0,0.387,0.364,1.075,0.902,2.085l1.588,2.874l1.674-3.026c0.602-1.116,0.815-1.695,0.815-1.974c0-0.388-0.365-0.473-1.567-0.495
	v-1.03c0.924,0.021,1.696,0.042,2.641,0.042c0.473,0,1.351-0.021,2.211-0.042v1.03c-0.452,0.087-0.794,0.15-1.033,0.343
	c-0.213,0.173-0.62,0.689-1.35,1.89l-2.855,4.722v3.389c0,0.345,0.022,0.817,0.064,0.967c0.087,0.256,0.388,0.388,1.911,0.472v1.03
	C218.549,113.593,216.96,113.572,216.489,113.572"/>
<path fill="#003A60" d="M74.126,138.101c0.418,0,0.791-0.049,1.117-0.146c0.326-0.098,0.617-0.225,0.874-0.381
	c0.257-0.157,0.481-0.332,0.674-0.528c0.192-0.194,0.361-0.387,0.506-0.577c0.089,0.068,0.16,0.17,0.213,0.31
	c0.053,0.139,0.08,0.282,0.08,0.426c0,0.241-0.065,0.493-0.193,0.757c-0.128,0.266-0.343,0.51-0.644,0.733
	c-0.301,0.223-0.7,0.407-1.196,0.552c-0.497,0.145-1.11,0.217-1.841,0.217c-0.993,0-1.86-0.15-2.602-0.451
	c-0.742-0.302-1.358-0.728-1.849-1.28c-0.491-0.552-0.859-1.216-1.104-1.991c-0.245-0.776-0.368-1.635-0.368-2.578
	c0-0.925,0.125-1.773,0.376-2.542c0.251-0.77,0.624-1.431,1.117-1.984c0.494-0.552,1.11-0.981,1.849-1.288s1.594-0.46,2.564-0.46
	c0.658,0,1.232,0.052,1.719,0.154c0.489,0.104,0.895,0.244,1.218,0.423s0.566,0.389,0.728,0.632
	c0.161,0.242,0.242,0.503,0.242,0.782c0,0.212-0.045,0.408-0.138,0.59c-0.092,0.181-0.228,0.339-0.409,0.473
	c-0.182,0.134-0.407,0.238-0.674,0.313c-0.268,0.075-0.574,0.114-0.921,0.114c0-0.286-0.03-0.568-0.091-0.85
	c-0.062-0.281-0.166-0.537-0.314-0.766c-0.148-0.228-0.342-0.414-0.581-0.555c-0.241-0.143-0.539-0.214-0.896-0.214
	c-0.541,0-0.998,0.114-1.372,0.343c-0.374,0.229-0.673,0.563-0.899,1.003c-0.226,0.442-0.389,0.984-0.49,1.628
	c-0.1,0.644-0.151,1.379-0.151,2.204c0,0.827,0.062,1.548,0.185,2.167c0.123,0.62,0.32,1.134,0.594,1.544
	c0.273,0.41,0.629,0.717,1.067,0.92C72.953,137.999,73.49,138.101,74.126,138.101"/>
<path fill="#003A60" d="M90.833,133.165c0,0.942-0.127,1.802-0.381,2.577c-0.254,0.776-0.628,1.44-1.121,1.991
	c-0.493,0.552-1.098,0.979-1.815,1.281c-0.717,0.3-1.541,0.451-2.473,0.451c-0.976,0-1.827-0.151-2.555-0.451
	c-0.728-0.302-1.332-0.729-1.812-1.281c-0.479-0.551-0.839-1.217-1.079-1.995c-0.24-0.778-0.36-1.641-0.36-2.59
	c0-0.948,0.12-1.808,0.36-2.581c0.24-0.772,0.601-1.431,1.083-1.978c0.483-0.547,1.088-0.969,1.816-1.268
	c0.728-0.298,1.582-0.447,2.564-0.447c0.926,0,1.747,0.149,2.464,0.447c0.717,0.299,1.32,0.723,1.812,1.272
	c0.49,0.55,0.862,1.211,1.116,1.983C90.706,131.349,90.833,132.212,90.833,133.165 M82.116,133.165c0,0.82,0.053,1.551,0.159,2.192
	c0.106,0.642,0.276,1.184,0.51,1.627c0.235,0.444,0.538,0.783,0.908,1.017c0.371,0.234,0.821,0.351,1.351,0.351
	c0.536,0,0.989-0.117,1.36-0.351c0.371-0.234,0.67-0.573,0.899-1.017c0.229-0.443,0.395-0.985,0.498-1.627
	c0.103-0.641,0.155-1.372,0.155-2.192c0-0.82-0.052-1.551-0.155-2.192c-0.103-0.641-0.269-1.184-0.498-1.627
	c-0.229-0.444-0.527-0.781-0.895-1.012c-0.368-0.231-0.817-0.348-1.347-0.348c-0.535,0-0.99,0.117-1.363,0.348
	c-0.374,0.231-0.678,0.568-0.913,1.012c-0.234,0.443-0.404,0.986-0.51,1.627S82.116,132.345,82.116,133.165"/>
<path fill="#003A60" d="M92.256,139.298v-0.912h0.719c0.129,0,0.246-0.013,0.352-0.038c0.105-0.025,0.198-0.076,0.276-0.154
	c0.078-0.079,0.139-0.19,0.184-0.334c0.044-0.146,0.067-0.341,0.067-0.586v-8.192c0-0.245-0.023-0.44-0.067-0.585
	c-0.045-0.145-0.106-0.257-0.184-0.335c-0.078-0.078-0.171-0.13-0.276-0.154c-0.106-0.025-0.223-0.038-0.352-0.038h-0.719v-0.903
	h5.915v0.903h-0.72c-0.117,0-0.23,0.013-0.339,0.038c-0.108,0.024-0.202,0.073-0.28,0.145c-0.078,0.074-0.141,0.178-0.188,0.315
	c-0.048,0.137-0.071,0.319-0.071,0.548v9.236h3.187c0.402,0,0.714-0.127,0.937-0.381c0.224-0.254,0.385-0.623,0.486-1.108
	l0.276-1.288h0.962l-0.125,3.823H92.256z"/>
<path fill="#003A60" d="M115.523,133.165c0,0.942-0.127,1.802-0.381,2.577c-0.254,0.776-0.628,1.44-1.121,1.991
	c-0.494,0.552-1.099,0.979-1.816,1.281c-0.716,0.3-1.541,0.451-2.472,0.451c-0.976,0-1.828-0.151-2.555-0.451
	c-0.729-0.302-1.332-0.729-1.812-1.281c-0.48-0.551-0.84-1.217-1.079-1.995c-0.24-0.778-0.36-1.641-0.36-2.59
	c0-0.948,0.12-1.808,0.36-2.581c0.239-0.772,0.601-1.431,1.083-1.978c0.482-0.547,1.088-0.969,1.816-1.268
	c0.727-0.298,1.582-0.447,2.564-0.447c0.926,0,1.747,0.149,2.464,0.447c0.716,0.299,1.32,0.723,1.811,1.272
	c0.491,0.55,0.863,1.211,1.117,1.983C115.396,131.349,115.523,132.212,115.523,133.165 M106.805,133.165
	c0,0.82,0.053,1.551,0.159,2.192c0.106,0.642,0.276,1.184,0.51,1.627c0.235,0.444,0.537,0.783,0.908,1.017
	c0.371,0.234,0.821,0.351,1.351,0.351c0.536,0,0.989-0.117,1.36-0.351c0.371-0.234,0.67-0.573,0.899-1.017
	c0.229-0.443,0.395-0.985,0.498-1.627c0.103-0.641,0.155-1.372,0.155-2.192c0-0.82-0.052-1.551-0.155-2.192
	c-0.103-0.641-0.269-1.184-0.498-1.627c-0.229-0.444-0.527-0.781-0.895-1.012c-0.368-0.231-0.817-0.348-1.347-0.348
	c-0.536,0-0.99,0.117-1.364,0.348c-0.373,0.231-0.677,0.568-0.912,1.012c-0.234,0.443-0.404,0.986-0.51,1.627
	S106.805,132.345,106.805,133.165"/>
<path fill="#003A60" d="M126.817,139.298v-0.912h0.167c0.179,0,0.336-0.011,0.473-0.033c0.137-0.023,0.25-0.068,0.339-0.134
	c0.089-0.067,0.156-0.163,0.201-0.289c0.044-0.125,0.067-0.291,0.067-0.498v-8.676l-3.455,10.542h-1.164l-3.622-10.542v8.518
	c0,0.245,0.029,0.44,0.088,0.586c0.058,0.144,0.142,0.255,0.251,0.334c0.109,0.078,0.241,0.129,0.397,0.154
	c0.156,0.025,0.335,0.038,0.536,0.038h0.1v0.912h-4.25v-0.912h0.719c0.123,0,0.237-0.011,0.343-0.033
	c0.106-0.023,0.2-0.069,0.281-0.138c0.08-0.07,0.143-0.174,0.188-0.31c0.045-0.136,0.067-0.317,0.067-0.54v-8.349
	c0-0.229-0.022-0.411-0.067-0.548c-0.045-0.137-0.108-0.241-0.188-0.315c-0.081-0.072-0.175-0.121-0.281-0.145
	c-0.106-0.025-0.22-0.038-0.343-0.038h-0.719v-0.903h4.936l2.845,8.274l2.727-8.274h4.844v0.903h-0.719
	c-0.123,0-0.237,0.013-0.344,0.038c-0.105,0.024-0.197,0.076-0.276,0.154c-0.078,0.078-0.139,0.19-0.183,0.335
	c-0.045,0.145-0.067,0.34-0.067,0.585v8.192c0,0.245,0.022,0.44,0.067,0.586c0.044,0.144,0.105,0.255,0.183,0.334
	c0.079,0.078,0.171,0.129,0.276,0.154c0.107,0.025,0.221,0.038,0.344,0.038h0.719v0.912H126.817z"/>
<path fill="#003A60" d="M143.165,130.179c0,0.379-0.051,0.709-0.154,0.991c-0.103,0.281-0.25,0.524-0.439,0.728
	c-0.19,0.204-0.417,0.377-0.682,0.523c-0.266,0.144-0.559,0.268-0.883,0.368v0.083c0.396,0.101,0.757,0.239,1.083,0.414
	c0.327,0.176,0.608,0.391,0.846,0.645c0.237,0.254,0.421,0.548,0.552,0.883c0.131,0.334,0.197,0.71,0.197,1.128
	c0,1.127-0.41,1.968-1.23,2.523c-0.82,0.556-2.045,0.833-3.673,0.833h-5.522v-0.912h0.702c0.129,0,0.247-0.013,0.356-0.038
	c0.109-0.025,0.202-0.076,0.28-0.155c0.078-0.078,0.141-0.189,0.189-0.334c0.047-0.145,0.071-0.34,0.071-0.586v-8.208
	c0-0.228-0.024-0.414-0.071-0.555c-0.048-0.143-0.112-0.253-0.193-0.331c-0.08-0.078-0.175-0.132-0.284-0.163
	c-0.109-0.031-0.225-0.046-0.348-0.046h-0.702v-0.904h5.003c1.629,0,2.853,0.251,3.673,0.753
	C142.756,128.321,143.165,129.107,143.165,130.179 M137.56,132.379h0.653c0.401,0,0.735-0.042,1-0.126
	c0.264-0.083,0.476-0.213,0.636-0.389c0.158-0.175,0.271-0.403,0.338-0.681c0.067-0.28,0.101-0.614,0.101-1.004
	c0-0.391-0.038-0.717-0.113-0.98c-0.076-0.261-0.197-0.473-0.364-0.635c-0.168-0.162-0.385-0.278-0.653-0.347
	c-0.267-0.07-0.594-0.105-0.978-0.105h-0.62V132.379z M137.56,138.252h1.138c0.379,0,0.702-0.042,0.97-0.126
	c0.268-0.083,0.486-0.219,0.653-0.405c0.168-0.187,0.289-0.431,0.364-0.733c0.075-0.3,0.113-0.669,0.113-1.103
	c0-0.419-0.034-0.783-0.1-1.092c-0.067-0.31-0.182-0.565-0.344-0.766c-0.161-0.201-0.373-0.351-0.635-0.452
	c-0.263-0.1-0.592-0.15-0.988-0.15h-1.171V138.252z"/>
<path fill="#003A60" d="M144.771,139.298v-0.912h0.719c0.129,0,0.246-0.013,0.352-0.038c0.106-0.025,0.198-0.076,0.276-0.154
	c0.078-0.079,0.14-0.19,0.184-0.334c0.045-0.146,0.067-0.341,0.067-0.586v-8.183c0-0.245-0.022-0.44-0.067-0.586
	c-0.044-0.145-0.106-0.256-0.184-0.334c-0.078-0.078-0.17-0.13-0.276-0.155c-0.106-0.026-0.223-0.037-0.352-0.037h-0.719v-0.912
	h5.916v0.912h-0.72c-0.123,0-0.238,0.011-0.347,0.037c-0.109,0.025-0.203,0.077-0.281,0.155s-0.139,0.189-0.184,0.334
	c-0.045,0.146-0.067,0.341-0.067,0.586v8.183c0,0.245,0.022,0.44,0.067,0.586c0.045,0.144,0.106,0.255,0.184,0.334
	c0.078,0.078,0.172,0.129,0.281,0.154c0.109,0.025,0.224,0.038,0.347,0.038h0.72v0.912H144.771z"/>
<path fill="#003A60" d="M154.896,135.273l-0.494,1.473c-0.045,0.14-0.091,0.303-0.138,0.489c-0.047,0.188-0.071,0.351-0.071,0.49
	c0,0.112,0.022,0.209,0.067,0.293c0.044,0.084,0.103,0.152,0.176,0.205c0.072,0.053,0.154,0.093,0.246,0.121
	c0.092,0.028,0.189,0.042,0.289,0.042h0.719v0.912h-4.459v-0.912h0.209c0.151,0,0.289-0.017,0.415-0.05
	c0.125-0.034,0.242-0.097,0.351-0.189c0.109-0.091,0.212-0.218,0.309-0.38c0.098-0.162,0.197-0.371,0.298-0.628l3.714-10.073h2.351
	l3.581,10.09c0.084,0.24,0.171,0.44,0.264,0.598c0.092,0.159,0.192,0.285,0.301,0.377c0.108,0.092,0.224,0.157,0.347,0.196
	c0.122,0.039,0.251,0.059,0.385,0.059h0.309v0.912h-5.656v-0.912h0.67c0.083,0,0.17-0.013,0.259-0.038s0.169-0.064,0.239-0.117
	c0.069-0.053,0.126-0.122,0.171-0.205c0.045-0.084,0.067-0.184,0.067-0.301c0-0.139-0.017-0.273-0.05-0.402
	c-0.033-0.128-0.067-0.239-0.1-0.335l-0.603-1.715H154.896z M157.815,131.417c-0.061-0.195-0.124-0.4-0.187-0.615
	c-0.065-0.215-0.129-0.434-0.193-0.657s-0.126-0.445-0.184-0.665c-0.059-0.22-0.11-0.431-0.155-0.631
	c-0.051,0.172-0.109,0.362-0.176,0.568c-0.066,0.206-0.138,0.419-0.213,0.636c-0.075,0.218-0.15,0.435-0.225,0.653
	c-0.077,0.217-0.147,0.426-0.214,0.627l-1.013,2.895h3.464L157.815,131.417z"/>
</svg>
